Poster: 
http://imgr.us/images/s7k5tmr8cpyi7zscdku6.jpg

Info:


Format : AVI
Format/Info : Audio Video Interleave
File size : 695 MiB
Duration : 2h 19mn
Overall bit rate : 695 Kbps
Writing library : VirtualDub build 24463/release

Video

Codec ID : XVID
Codec ID/Hint : XviD
Duration : 2h 19mn
Bit rate : 562 Kbps
Width : 688 pixels
Height : 288 pixels
Display aspect ratio : 2.40:1
Frame rate : 23.976 fps
Color space : YUV
Chroma subsampling : 4:2:0
Bit depth : 8 bits
Scan type : Progressive
Compression mode : Lossy
Bits/(Pixel*Frame) : 0.118
Stream size : 562 MiB (81%)

Audio

Codec ID : 2000
Duration : 2h 19mn
Bit rate mode : Constant
Bit rate : 128 Kbps
Channel(s) : 6 channels
Channel positions : Front: L C R, Side: L R, LFE
Sampling rate : 48.0 KHz
Bit depth : 16 bits
Compression mode : Lossy
Stream size : 128 MiB (18%)

Screens: 
http://www.shotpix.com/images/62405540138741433969.jpeg 
http://www.shotpix.com/images/04776881858387398177.jpeg 
http://www.shotpix.com/images/66168595367918800001.jpeg 
http://www.shotpix.com/images/22619635356336997948.jpeg 
http://www.shotpix.com/images/45653481645708255090.jpeg 
http://www.shotpix.com/images/68815550263031120613.jpeg





